<?xml version="1.0" encoding="UTF-8"?>
<svg width="50pt" height="50pt" version="1.1" viewBox="0 0 100 100" xmlns="http://www.w3.org/2000/svg">
 <g>
  <path d="m50.266 10.246c0 5.6641-4.5898 10.262-10.254 10.262-5.6641 0-10.254-4.5977-10.254-10.262 0.003907-5.6602 4.5898-10.246 10.254-10.246 5.6641 0 10.254 4.582 10.254 10.246z"/>
  <path d="m40.262 93.426c-13.594 0-24.648-11.055-24.648-24.645 0-9.1602 5.0781-17.074 12.508-21.32v-7.4336c-11.199 4.7383-19.078 15.844-19.078 28.754 0 17.207 13.996 31.219 31.219 31.219 11.426 0 21.34-6.2617 26.77-15.457l-3.3711-8.4414c-3.1406 10.004-12.371 17.324-23.398 17.324z"/>
  <path d="m86.043 78.43h-7.4102s-4.4844-12.793-5.7422-16.191c-0.80859-2.2461-2.9102-3.8789-5.4375-3.8789h-17.988v-12.578h17.062c2.2578 0 4.0938-1.8242 4.0938-4.0898s-1.8359-4.1133-4.0938-4.1133h-17.062s-0.98438-14.922-9.4531-14.922c-5.8008 0-7.7852 4.707-7.7852 10.508v26.34c0 5.8086 4.7148 10.52 10.508 10.52 0.17578 0 0.32031-0.09375 0.48828-0.09375 0.16406 0.007812 0.3125 0.09375 0.48828 0.09375h21.941l7.2969 18.242h13.094c2.707 0 4.9141-2.207 4.9141-4.9219 0-2.7188-2.207-4.9141-4.9141-4.9141z"/>
 </g>
</svg>
